<svg width="103" height="46" viewBox="0 0 103 46" fill="none" xmlns="http://www.w3.org/2000/svg">
<path d="M37.728 10.888L38.3575 11.665L40.4881 9.93894L37.7465 9.88817L37.728 10.888ZM12.448 31.368H11.448V33.4651L13.0775 32.145L12.448 31.368ZM12.448 11.272L12.3848 10.274L11.448 10.3333V11.272H12.448ZM16.032 35.592L15.4018 34.8155L13.2745 36.542L16.0138 36.5918L16.032 35.592ZM41.504 14.92H42.504V12.8206L40.8738 14.1435L41.504 14.92ZM41.504 35.208L41.5672 36.206L42.504 36.1467V35.208H41.504ZM26.976 -0.480003C17.2602 -0.480003 10.3126 0.770431 5.81885 4.48525C1.26756 8.24766 -0.52 14.3151 -0.52 23.24H1.48C1.48 14.5009 3.24444 9.20834 7.09315 6.02674C10.9994 2.79756 17.2998 1.52 26.976 1.52V-0.480003ZM-0.52 23.24C-0.52 32.1649 1.26756 38.2323 5.81885 41.9947C10.3126 45.7096 17.2602 46.96 26.976 46.96V44.96C17.2998 44.96 10.9994 43.6824 7.09315 40.4533C3.24444 37.2717 1.48 31.9791 1.48 23.24H-0.52ZM26.976 46.96C36.6918 46.96 43.6394 45.7096 48.1332 41.9947C52.6844 38.2323 54.472 32.1649 54.472 23.24H52.472C52.472 31.9791 50.7076 37.2717 46.8589 40.4533C42.9526 43.6824 36.6522 44.96 26.976 44.96V46.96ZM54.472 23.24C54.472 14.3151 52.6844 8.24766 48.1332 4.48525C43.6394 0.770431 36.6918 -0.480003 26.976 -0.480003V1.52C36.6522 1.52 42.9526 2.79756 46.8589 6.02674C50.7076 9.20834 52.472 14.5009 52.472 23.24H54.472ZM26.976 11.76C30.7415 11.76 34.2528 11.8238 37.7095 11.8878L37.7465 9.88817C34.2912 9.82418 30.7625 9.76 26.976 9.76V11.76ZM37.0985 10.111L11.8185 30.591L13.0775 32.145L38.3575 11.665L37.0985 10.111ZM13.448 31.368V11.272H11.448V31.368H13.448ZM12.5112 12.27C17.5544 11.9508 21.884 11.76 26.976 11.76V9.76C21.828 9.76 17.4536 9.95319 12.3848 10.274L12.5112 12.27ZM26.976 34.72C23.1463 34.72 19.5709 34.6562 16.0502 34.5922L16.0138 36.5918C19.5331 36.6558 23.1257 36.72 26.976 36.72V34.72ZM16.6622 36.3685L42.1342 15.6965L40.8738 14.1435L15.4018 34.8155L16.6622 36.3685ZM40.504 14.92V35.208H42.504V14.92H40.504ZM41.4408 34.21C36.3976 34.5292 32.068 34.72 26.976 34.72V36.72C32.124 36.72 36.4984 36.5268 41.5672 36.206L41.4408 34.21ZM85.9995 1.48H86.9995V0.48H85.9995V1.48ZM74.7355 1.48V0.48H73.7355V1.48H74.7355ZM74.7355 8.2V9.2H75.7355V8.2H74.7355ZM60.5275 8.2V7.2H59.5275V8.2H60.5275ZM60.5275 17.608H59.5275V18.608H60.5275V17.608ZM74.7355 17.608H75.7355V16.608H74.7355V17.608ZM74.7355 35.272V36.272H75.7355V35.272H74.7355ZM56.0475 35.272V34.272H55.0475V35.272H56.0475ZM56.0475 45H55.0475V46H56.0475V45ZM102.704 45V46H103.704V45H102.704ZM102.704 35.272H103.704V34.272H102.704V35.272ZM85.9995 35.272H84.9995V36.272H85.9995V35.272ZM85.9995 0.48H74.7355V2.48H85.9995V0.48ZM73.7355 1.48V8.2H75.7355V1.48H73.7355ZM74.7355 7.2H60.5275V9.2H74.7355V7.2ZM59.5275 8.2V17.608H61.5275V8.2H59.5275ZM60.5275 18.608H74.7355V16.608H60.5275V18.608ZM73.7355 17.608V35.272H75.7355V17.608H73.7355ZM74.7355 34.272H56.0475V36.272H74.7355V34.272ZM55.0475 35.272V45H57.0475V35.272H55.0475ZM56.0475 46H102.704V44H56.0475V46ZM103.704 45V35.272H101.704V45H103.704ZM102.704 34.272H85.9995V36.272H102.704V34.272ZM86.9995 35.272V1.48H84.9995V35.272H86.9995Z" fill="#B8B8B8"/>
</svg>
