<svg width="109" height="46" viewBox="0 0 109 46" fill="none" xmlns="http://www.w3.org/2000/svg">
<path d="M37.728 10.888L38.3575 11.665L40.4881 9.93894L37.7465 9.88817L37.728 10.888ZM12.448 31.368H11.448V33.4651L13.0775 32.145L12.448 31.368ZM12.448 11.272L12.3848 10.274L11.448 10.3333V11.272H12.448ZM16.032 35.592L15.4018 34.8155L13.2745 36.542L16.0138 36.5918L16.032 35.592ZM41.504 14.92H42.504V12.8206L40.8738 14.1435L41.504 14.92ZM41.504 35.208L41.5672 36.206L42.504 36.1467V35.208H41.504ZM26.976 -0.480003C17.2602 -0.480003 10.3126 0.770431 5.81885 4.48525C1.26756 8.24766 -0.52 14.3151 -0.52 23.24H1.48C1.48 14.5009 3.24444 9.20834 7.09315 6.02674C10.9994 2.79756 17.2998 1.52 26.976 1.52V-0.480003ZM-0.52 23.24C-0.52 32.1649 1.26756 38.2323 5.81885 41.9947C10.3126 45.7096 17.2602 46.96 26.976 46.96V44.96C17.2998 44.96 10.9994 43.6824 7.09315 40.4533C3.24444 37.2717 1.48 31.9791 1.48 23.24H-0.52ZM26.976 46.96C36.6918 46.96 43.6394 45.7096 48.1332 41.9947C52.6844 38.2323 54.472 32.1649 54.472 23.24H52.472C52.472 31.9791 50.7076 37.2717 46.8589 40.4533C42.9526 43.6824 36.6522 44.96 26.976 44.96V46.96ZM54.472 23.24C54.472 14.3151 52.6844 8.24766 48.1332 4.48525C43.6394 0.770431 36.6918 -0.480003 26.976 -0.480003V1.52C36.6522 1.52 42.9526 2.79756 46.8589 6.02674C50.7076 9.20834 52.472 14.5009 52.472 23.24H54.472ZM26.976 11.76C30.7415 11.76 34.2528 11.8238 37.7095 11.8878L37.7465 9.88817C34.2912 9.82418 30.7625 9.76 26.976 9.76V11.76ZM37.0985 10.111L11.8185 30.591L13.0775 32.145L38.3575 11.665L37.0985 10.111ZM13.448 31.368V11.272H11.448V31.368H13.448ZM12.5112 12.27C17.5544 11.9508 21.884 11.76 26.976 11.76V9.76C21.828 9.76 17.4536 9.95319 12.3848 10.274L12.5112 12.27ZM26.976 34.72C23.1463 34.72 19.5709 34.6562 16.0502 34.5922L16.0138 36.5918C19.5331 36.6558 23.1257 36.72 26.976 36.72V34.72ZM16.6622 36.3685L42.1342 15.6965L40.8738 14.1435L15.4018 34.8155L16.6622 36.3685ZM40.504 14.92V35.208H42.504V14.92H40.504ZM41.4408 34.21C36.3976 34.5292 32.068 34.72 26.976 34.72V36.72C32.124 36.72 36.4984 36.5268 41.5672 36.206L41.4408 34.21ZM107.538 45V46H108.538V45H107.538ZM107.538 34.952H108.538V33.952H107.538V34.952ZM72.0175 34.952H71.0175V35.952H72.0175V34.952ZM72.0175 28.68L71.9387 27.6831L71.0175 27.756V28.68H72.0175ZM94.6735 26.888L94.5973 25.8909L94.5947 25.8911L94.6735 26.888ZM63.1855 1.672L63.1015 0.675529L62.219 0.749902L62.1862 1.63498L63.1855 1.672ZM62.8015 12.04L61.8022 12.003L61.7575 13.2104L62.9519 13.0286L62.8015 12.04ZM80.4655 10.184L80.3942 9.18653L80.3896 9.18688L80.4655 10.184ZM96.7855 9.544H97.7855V8.52127L96.763 8.54425L96.7855 9.544ZM96.7855 17.608L96.8647 18.6049L97.7855 18.5317V17.608H96.7855ZM75.0255 19.336L74.9463 18.3391L74.945 18.3392L75.0255 19.336ZM59.8575 45H58.8575V46H59.8575V45ZM108.538 45V34.952H106.538V45H108.538ZM107.538 33.952H72.0175V35.952H107.538V33.952ZM73.0175 34.952V28.68H71.0175V34.952H73.0175ZM72.0964 29.6769L94.7523 27.8849L94.5947 25.8911L71.9387 27.6831L72.0964 29.6769ZM94.7497 27.8851C99.8804 27.4929 103.712 26.1917 106.26 23.8107C108.836 21.4038 109.945 18.0431 109.945 13.896H107.945C107.945 17.6849 106.943 20.4362 104.895 22.3493C102.819 24.2883 99.5146 25.5151 94.5973 25.8909L94.7497 27.8851ZM109.945 13.896C109.945 8.95144 108.344 5.24771 104.74 2.84763C101.229 0.510309 95.9717 -0.480003 88.9135 -0.480003V1.52C95.8713 1.52 100.63 2.51369 103.631 4.51236C106.539 6.44829 107.945 9.43256 107.945 13.896H109.945ZM88.9135 -0.480003C81.5909 -0.480003 74.5228 -0.286939 63.1015 0.675529L63.2695 2.66847C74.6322 1.71093 81.6441 1.52 88.9135 1.52V-0.480003ZM62.1862 1.63498L61.8022 12.003L63.8008 12.077L64.1848 1.70901L62.1862 1.63498ZM62.9519 13.0286C68.8008 12.1386 74.6575 11.6288 80.5414 11.1811L80.3896 9.18688C74.4975 9.6352 68.5782 10.1494 62.6511 11.0514L62.9519 13.0286ZM80.5367 11.1815C85.885 10.7994 91.1097 10.6718 96.808 10.5437L96.763 8.54425C91.0693 8.6722 85.798 8.80056 80.3943 9.18654L80.5367 11.1815ZM95.7855 9.544V17.608H97.7855V9.544H95.7855ZM96.7063 16.6111L74.9463 18.3391L75.1047 20.3329L96.8647 18.6049L96.7063 16.6111ZM74.945 18.3392C69.7078 18.7621 65.6648 19.9916 62.9257 22.3456C60.1416 24.7384 58.8575 28.1567 58.8575 32.584H60.8575C60.8575 28.5633 62.0054 25.7736 64.2293 23.8624C66.4982 21.9124 70.0392 20.7419 75.106 20.3328L74.945 18.3392ZM58.8575 32.584V45H60.8575V32.584H58.8575ZM59.8575 46H107.538V44H59.8575V46Z" fill="#B8B8B8"/>
</svg>
