<svg width="106" height="46" viewBox="0 0 106 46" fill="none" xmlns="http://www.w3.org/2000/svg">
<path d="M37.728 10.888L38.3575 11.665L40.4881 9.93894L37.7465 9.88817L37.728 10.888ZM12.448 31.368H11.448V33.4651L13.0775 32.145L12.448 31.368ZM12.448 11.272L12.3848 10.274L11.448 10.3333V11.272H12.448ZM16.032 35.592L15.4018 34.8155L13.2745 36.542L16.0138 36.5918L16.032 35.592ZM41.504 14.92H42.504V12.8206L40.8738 14.1435L41.504 14.92ZM41.504 35.208L41.5672 36.206L42.504 36.1467V35.208H41.504ZM26.976 -0.480003C17.2602 -0.480003 10.3126 0.770431 5.81885 4.48525C1.26756 8.24766 -0.52 14.3151 -0.52 23.24H1.48C1.48 14.5009 3.24444 9.20834 7.09315 6.02674C10.9994 2.79756 17.2998 1.52 26.976 1.52V-0.480003ZM-0.52 23.24C-0.52 32.1649 1.26756 38.2323 5.81885 41.9947C10.3126 45.7096 17.2602 46.96 26.976 46.96V44.96C17.2998 44.96 10.9994 43.6824 7.09315 40.4533C3.24444 37.2717 1.48 31.9791 1.48 23.24H-0.52ZM26.976 46.96C36.6918 46.96 43.6394 45.7096 48.1332 41.9947C52.6844 38.2323 54.472 32.1649 54.472 23.24H52.472C52.472 31.9791 50.7076 37.2717 46.8589 40.4533C42.9526 43.6824 36.6522 44.96 26.976 44.96V46.96ZM54.472 23.24C54.472 14.3151 52.6844 8.24766 48.1332 4.48525C43.6394 0.770431 36.6918 -0.480003 26.976 -0.480003V1.52C36.6522 1.52 42.9526 2.79756 46.8589 6.02674C50.7076 9.20834 52.472 14.5009 52.472 23.24H54.472ZM26.976 11.76C30.7415 11.76 34.2528 11.8238 37.7095 11.8878L37.7465 9.88817C34.2912 9.82418 30.7625 9.76 26.976 9.76V11.76ZM37.0985 10.111L11.8185 30.591L13.0775 32.145L38.3575 11.665L37.0985 10.111ZM13.448 31.368V11.272H11.448V31.368H13.448ZM12.5112 12.27C17.5544 11.9508 21.884 11.76 26.976 11.76V9.76C21.828 9.76 17.4536 9.95319 12.3848 10.274L12.5112 12.27ZM26.976 34.72C23.1463 34.72 19.5709 34.6562 16.0502 34.5922L16.0138 36.5918C19.5331 36.6558 23.1257 36.72 26.976 36.72V34.72ZM16.6622 36.3685L42.1342 15.6965L40.8738 14.1435L15.4018 34.8155L16.6622 36.3685ZM40.504 14.92V35.208H42.504V14.92H40.504ZM41.4408 34.21C36.3976 34.5292 32.068 34.72 26.976 34.72V36.72C32.124 36.72 36.4984 36.5268 41.5672 36.206L41.4408 34.21ZM97.6475 22.984L97.2964 22.0477L94.4185 23.1269L97.3805 23.9477L97.6475 22.984ZM58.8635 1.672L58.7873 0.674906L57.8985 0.742838L57.8642 1.63356L58.8635 1.672ZM58.4795 11.656L57.4802 11.6176L57.4352 12.7885L58.5986 12.6489L58.4795 11.656ZM77.4235 9.992L77.3813 8.99286L77.3745 8.9932L77.4235 9.992ZM92.2075 9.544H93.2075V8.53202L92.1956 8.54407L92.2075 9.544ZM92.2075 18.696V19.696H93.2075V18.696H92.2075ZM69.1035 18.696V17.696H68.1035V18.696H69.1035ZM69.1035 27.656H68.1035V28.656H69.1035V27.656ZM93.2315 27.656H94.2315V26.656H93.2315V27.656ZM93.2315 36.872L93.2196 37.8719L94.2315 37.884V36.872H93.2315ZM77.2315 36.36L77.2889 35.3616L77.286 35.3615L77.2315 36.36ZM57.0075 34.504L57.1414 33.513L55.9639 33.3539L56.0082 34.5412L57.0075 34.504ZM57.3915 44.808L56.3922 44.8452L56.4251 45.7285L57.3057 45.8043L57.3915 44.808ZM97.9986 23.9203C100.464 22.9957 102.337 21.594 103.579 19.6406C104.815 17.6978 105.368 15.3024 105.368 12.488H103.368C103.368 15.0496 102.864 17.0382 101.892 18.5674C100.926 20.086 99.4386 21.2443 97.2964 22.0477L97.9986 23.9203ZM105.368 12.488C105.368 10.2707 104.961 8.30588 104.069 6.61451C103.173 4.91633 101.819 3.55226 100.017 2.49705C96.4574 0.412856 91.1276 -0.480003 83.9515 -0.480003V1.52C91.0474 1.52 95.9256 2.41914 99.0062 4.22294C100.524 5.11173 101.598 6.21566 102.3 7.54749C103.006 8.88612 103.368 10.5133 103.368 12.488H105.368ZM83.9515 -0.480003C76.4276 -0.480003 68.8475 -0.0940218 58.7873 0.674906L58.9397 2.66909C68.9755 1.90202 76.4994 1.52 83.9515 1.52V-0.480003ZM57.8642 1.63356L57.4802 11.6176L59.4788 11.6944L59.8628 1.71043L57.8642 1.63356ZM58.5986 12.6489C64.9829 11.8828 70.9744 11.3093 77.4725 10.9908L77.3745 8.9932C70.8166 9.31466 64.7761 9.89323 58.3604 10.6631L58.5986 12.6489ZM77.4657 10.9911C82.0083 10.7992 86.8595 10.6077 92.2194 10.5439L92.1956 8.54407C86.8035 8.60826 81.9267 8.80083 77.3813 8.99289L77.4657 10.9911ZM91.2075 9.544V18.696H93.2075V9.544H91.2075ZM92.2075 17.696H69.1035V19.696H92.2075V17.696ZM68.1035 18.696V27.656H70.1035V18.696H68.1035ZM69.1035 28.656H93.2315V26.656H69.1035V28.656ZM92.2315 27.656V36.872H94.2315V27.656H92.2315ZM93.2434 35.8721C87.8763 35.8082 82.8366 35.6805 77.2889 35.3616L77.1741 37.3584C82.7624 37.6795 87.8347 37.8078 93.2196 37.8719L93.2434 35.8721ZM77.286 35.3615C70.266 34.9786 64.2133 34.4687 57.1414 33.513L56.8736 35.495C64.0097 36.4593 70.117 36.9734 77.177 37.3585L77.286 35.3615ZM56.0082 34.5412L56.3922 44.8452L58.3908 44.7708L58.0068 34.4668L56.0082 34.5412ZM57.3057 45.8043C66.9995 46.6389 75.7961 46.96 83.6315 46.96V44.96C75.8509 44.96 67.1115 44.6411 57.4773 43.8117L57.3057 45.8043ZM83.6315 46.96C91.7355 46.96 97.4104 45.9236 101.08 43.6858C102.939 42.5524 104.284 41.1104 105.155 39.3582C106.021 37.6154 106.392 35.6214 106.392 33.416H104.392C104.392 35.4026 104.058 37.0726 103.364 38.4678C102.675 39.8536 101.604 41.0236 100.039 41.9782C96.8606 43.9164 91.6555 44.96 83.6315 44.96V46.96ZM106.392 33.416C106.392 30.46 105.753 27.9888 104.316 26.0454C102.875 24.0979 100.72 22.7978 97.9145 22.0203L97.3805 23.9477C99.8869 24.6422 101.604 25.7421 102.707 27.2346C103.814 28.7312 104.392 30.74 104.392 33.416H106.392Z" fill="#B8B8B8"/>
</svg>
