<svg width="112" height="46" viewBox="0 0 112 46" fill="none" xmlns="http://www.w3.org/2000/svg">
<path d="M37.728 10.888L38.3575 11.665L40.4881 9.93894L37.7465 9.88817L37.728 10.888ZM12.448 31.368H11.448V33.4651L13.0775 32.145L12.448 31.368ZM12.448 11.272L12.3848 10.274L11.448 10.3333V11.272H12.448ZM16.032 35.592L15.4018 34.8155L13.2745 36.542L16.0138 36.5918L16.032 35.592ZM41.504 14.92H42.504V12.8206L40.8738 14.1435L41.504 14.92ZM41.504 35.208L41.5672 36.206L42.504 36.1467V35.208H41.504ZM26.976 -0.480003C17.2602 -0.480003 10.3126 0.770431 5.81885 4.48525C1.26756 8.24766 -0.52 14.3151 -0.52 23.24H1.48C1.48 14.5009 3.24444 9.20834 7.09315 6.02674C10.9994 2.79756 17.2998 1.52 26.976 1.52V-0.480003ZM-0.52 23.24C-0.52 32.1649 1.26756 38.2323 5.81885 41.9947C10.3126 45.7096 17.2602 46.96 26.976 46.96V44.96C17.2998 44.96 10.9994 43.6824 7.09315 40.4533C3.24444 37.2717 1.48 31.9791 1.48 23.24H-0.52ZM26.976 46.96C36.6918 46.96 43.6394 45.7096 48.1332 41.9947C52.6844 38.2323 54.472 32.1649 54.472 23.24H52.472C52.472 31.9791 50.7076 37.2717 46.8589 40.4533C42.9526 43.6824 36.6522 44.96 26.976 44.96V46.96ZM54.472 23.24C54.472 14.3151 52.6844 8.24766 48.1332 4.48525C43.6394 0.770431 36.6918 -0.480003 26.976 -0.480003V1.52C36.6522 1.52 42.9526 2.79756 46.8589 6.02674C50.7076 9.20834 52.472 14.5009 52.472 23.24H54.472ZM26.976 11.76C30.7415 11.76 34.2528 11.8238 37.7095 11.8878L37.7465 9.88817C34.2912 9.82418 30.7625 9.76 26.976 9.76V11.76ZM37.0985 10.111L11.8185 30.591L13.0775 32.145L38.3575 11.665L37.0985 10.111ZM13.448 31.368V11.272H11.448V31.368H13.448ZM12.5112 12.27C17.5544 11.9508 21.884 11.76 26.976 11.76V9.76C21.828 9.76 17.4536 9.95319 12.3848 10.274L12.5112 12.27ZM26.976 34.72C23.1463 34.72 19.5709 34.6562 16.0502 34.5922L16.0138 36.5918C19.5331 36.6558 23.1257 36.72 26.976 36.72V34.72ZM16.6622 36.3685L42.1342 15.6965L40.8738 14.1435L15.4018 34.8155L16.6622 36.3685ZM40.504 14.92V35.208H42.504V14.92H40.504ZM41.4408 34.21C36.3976 34.5292 32.068 34.72 26.976 34.72V36.72C32.124 36.72 36.4984 36.5268 41.5672 36.206L41.4408 34.21ZM101.266 25.48H100.266V26.48H101.266V25.48ZM101.266 12.104H102.266V11.104H101.266V12.104ZM90.2575 12.104V11.104H89.2575V12.104H90.2575ZM90.2575 25.48V26.48H91.2575V25.48H90.2575ZM71.2495 25.48H70.2495V26.48H71.2495V25.48ZM71.2495 25.16L70.478 24.5238L70.2495 24.8009V25.16H71.2495ZM90.5135 1.8L91.285 2.43622L91.5135 2.15914V1.8H90.5135ZM90.5135 1.48H91.5135V0.48H90.5135V1.48ZM77.5215 1.48V0.48H77.0436L76.7434 0.851806L77.5215 1.48ZM57.9375 25.736L57.1594 25.1078L56.9375 25.3827V25.736H57.9375ZM57.9375 35.208H56.9375V36.208H57.9375V35.208ZM90.2575 35.208H91.2575V34.208H90.2575V35.208ZM90.2575 45H89.2575V46H90.2575V45ZM101.266 45V46H102.266V45H101.266ZM101.266 35.208V34.208H100.266V35.208H101.266ZM111.249 35.208V36.208H112.249V35.208H111.249ZM111.249 25.48H112.249V24.48H111.249V25.48ZM102.266 25.48V12.104H100.266V25.48H102.266ZM101.266 11.104H90.2575V13.104H101.266V11.104ZM89.2575 12.104V25.48H91.2575V12.104H89.2575ZM90.2575 24.48H71.2495V26.48H90.2575V24.48ZM72.2495 25.48V25.16H70.2495V25.48H72.2495ZM72.021 25.7962L91.285 2.43622L89.742 1.16377L70.478 24.5238L72.021 25.7962ZM91.5135 1.8V1.48H89.5135V1.8H91.5135ZM90.5135 0.48H77.5215V2.48H90.5135V0.48ZM76.7434 0.851806L57.1594 25.1078L58.7156 26.3642L78.2996 2.10819L76.7434 0.851806ZM56.9375 25.736V35.208H58.9375V25.736H56.9375ZM57.9375 36.208H90.2575V34.208H57.9375V36.208ZM89.2575 35.208V45H91.2575V35.208H89.2575ZM90.2575 46H101.266V44H90.2575V46ZM102.266 45V35.208H100.266V45H102.266ZM101.266 36.208H111.249V34.208H101.266V36.208ZM112.249 35.208V25.48H110.249V35.208H112.249ZM111.249 24.48H101.266V26.48H111.249V24.48Z" fill="#B8B8B8"/>
</svg>
