<svg width="108" height="46" viewBox="0 0 108 46" fill="none" xmlns="http://www.w3.org/2000/svg">
<path d="M12.448 11.272L12.3848 10.274L11.448 10.3333V11.272H12.448ZM12.448 31.368H11.448V33.4651L13.0775 32.145L12.448 31.368ZM37.728 10.888L38.3575 11.665L40.4881 9.93894L37.7465 9.88817L37.728 10.888ZM41.504 35.208L41.5672 36.206L42.504 36.1467V35.208H41.504ZM41.504 14.92H42.504V12.8206L40.8738 14.1435L41.504 14.92ZM16.032 35.592L15.4018 34.8155L13.2745 36.542L16.0138 36.5918L16.032 35.592ZM26.976 1.52C36.6522 1.52 42.9526 2.79756 46.8589 6.02674C50.7076 9.20834 52.472 14.5009 52.472 23.24H54.472C54.472 14.3151 52.6844 8.24766 48.1332 4.48525C43.6394 0.77043 36.6918 -0.480003 26.976 -0.480003V1.52ZM52.472 23.24C52.472 31.9791 50.7076 37.2717 46.8589 40.4533C42.9526 43.6824 36.6522 44.96 26.976 44.96V46.96C36.6918 46.96 43.6394 45.7096 48.1332 41.9947C52.6844 38.2323 54.472 32.1649 54.472 23.24H52.472ZM26.976 44.96C17.2998 44.96 10.9994 43.6824 7.09315 40.4533C3.24444 37.2717 1.48 31.9791 1.48 23.24H-0.52C-0.52 32.1649 1.26756 38.2323 5.81885 41.9947C10.3126 45.7096 17.2602 46.96 26.976 46.96V44.96ZM1.48 23.24C1.48 14.5009 3.24444 9.20834 7.09315 6.02674C10.9994 2.79756 17.2998 1.52 26.976 1.52V-0.480003C17.2602 -0.480003 10.3126 0.77043 5.81885 4.48525C1.26756 8.24766 -0.52 14.3151 -0.52 23.24H1.48ZM26.976 9.76C21.828 9.76 17.4536 9.95319 12.3848 10.274L12.5112 12.27C17.5544 11.9508 21.884 11.76 26.976 11.76V9.76ZM11.448 11.272V31.368H13.448V11.272H11.448ZM13.0775 32.145L38.3575 11.665L37.0985 10.111L11.8185 30.591L13.0775 32.145ZM37.7465 9.88817C34.2912 9.82418 30.7625 9.76 26.976 9.76V11.76C30.7415 11.76 34.2528 11.8238 37.7095 11.8878L37.7465 9.88817ZM26.976 36.72C32.124 36.72 36.4984 36.5268 41.5672 36.206L41.4408 34.21C36.3976 34.5292 32.068 34.72 26.976 34.72V36.72ZM42.504 35.208V14.92H40.504V35.208H42.504ZM40.8738 14.1435L15.4018 34.8155L16.6622 36.3685L42.1342 15.6965L40.8738 14.1435ZM16.0138 36.5918C19.5331 36.6558 23.1257 36.72 26.976 36.72V34.72C23.1463 34.72 19.5709 34.6562 16.0502 34.5922L16.0138 36.5918ZM59.9215 44.808L58.9222 44.845L58.9554 45.7426L59.8514 45.8055L59.9215 44.808ZM59.5375 34.44L59.6853 33.451L58.4936 33.2729L58.5382 34.477L59.5375 34.44ZM76.5615 36.232L76.6335 35.2346L76.6295 35.2343L76.5615 36.232ZM95.3135 36.936L95.2937 37.9358L96.3135 37.956V36.936H95.3135ZM95.3135 27.592H96.3135V26.62L95.3418 26.5924L95.3135 27.592ZM61.4575 26.632H60.4575V27.604L61.4292 27.6316L61.4575 26.632ZM61.4575 1.48V0.48H60.4575V1.48H61.4575ZM105.298 1.48H106.298V0.48H105.298V1.48ZM105.298 10.888V11.888H106.298V10.888H105.298ZM72.9135 10.888V9.888H71.9135V10.888H72.9135ZM72.9135 17.992H71.9135V18.964L72.8851 18.9916L72.9135 17.992ZM93.2015 18.568L93.1731 19.5676L93.1759 19.5677L93.2015 18.568ZM87.3135 44.96C79.4732 44.96 71.8183 44.6415 59.9916 43.8105L59.8514 45.8055C71.7047 46.6385 79.4098 46.96 87.3135 46.96V44.96ZM60.9208 44.771L60.5368 34.403L58.5382 34.477L58.9222 44.845L60.9208 44.771ZM59.3897 35.429C64.9903 36.2659 70.8417 36.8443 76.4935 37.2297L76.6295 35.2343C71.0173 34.8517 65.2207 34.2781 59.6853 33.451L59.3897 35.429ZM76.4895 37.2294C82.7275 37.6796 88.8328 37.8079 95.2937 37.9358L95.3333 35.9362C88.8662 35.8081 82.8115 35.6804 76.6335 35.2346L76.4895 37.2294ZM96.3135 36.936V27.592H94.3135V36.936H96.3135ZM95.3418 26.5924L61.4858 25.6324L61.4292 27.6316L95.2852 28.5916L95.3418 26.5924ZM62.4575 26.632V1.48H60.4575V26.632H62.4575ZM61.4575 2.48H105.298V0.48H61.4575V2.48ZM104.298 1.48V10.888H106.298V1.48H104.298ZM105.298 9.888H72.9135V11.888H105.298V9.888ZM71.9135 10.888V17.992H73.9135V10.888H71.9135ZM72.8851 18.9916L93.1731 19.5676L93.2299 17.5684L72.9419 16.9924L72.8851 18.9916ZM93.1759 19.5677C98.0302 19.6921 101.312 20.9021 103.384 22.9169C105.446 24.9219 106.473 27.8845 106.473 31.88H108.473C108.473 27.5555 107.357 23.99 104.779 21.4831C102.211 18.9859 98.3568 17.6999 93.2271 17.5683L93.1759 19.5677ZM106.473 31.88C106.473 36.7248 105.063 39.8781 102.153 41.8894C99.1507 43.9644 94.3724 44.96 87.3135 44.96V46.96C94.4626 46.96 99.7643 45.9716 103.29 43.5346C106.908 41.0339 108.473 37.1472 108.473 31.88H106.473Z" fill="#B8B8B8"/>
</svg>
