<svg width="142" height="40" viewBox="0 0 142 40" fill="none" xmlns="http://www.w3.org/2000/svg">
<g clip-path="url(#clip0_5801_48344)">
<path d="M0 23.9789L19.0935 40L38.1405 24.0169V0H0V23.9789ZM1.94823 1.88484H36.2388V23.1252L22.0518 35.0301L19.0935 37.5108L16.1352 35.0301L1.94823 23.1252V1.88484Z" fill="white"/>
<path d="M22.2515 12.7031L15.9589 15.4628V17.3518H17.5056L13.9219 18.9239V21.8357L24.2927 17.2842V14.3724L22.2515 15.2684V12.7031Z" fill="white"/>
<path d="M19.1016 32.57L19.11 32.5785L22.2458 29.3582V25.8125L15.9531 28.5721V29.3582L19.0931 32.5785L19.1016 32.57Z" fill="white"/>
<path d="M107.433 2.5H100.312V3.97068H107.433V2.5Z" fill="white"/>
<path d="M56.7755 16.05H60.3338V8.46839H65.3671V5.53125H51.7422V8.46839H56.7755V16.05Z" fill="white"/>
<path d="M70.6329 13.0992H75.6493C78.7597 13.0992 80.1374 11.7848 80.1374 9.29567C80.1374 6.8065 78.7597 5.49219 75.6493 5.49219H67.0703V16.0574H70.6329V13.0992ZM70.6329 8.22225H76.4058V10.3902H70.6329V8.22225Z" fill="white"/>
<path d="M94.6663 13.265H85.8084V11.8746H92.0207V9.70663H85.8084V8.31625H94.4042V5.53125H82.25V16.05H94.6663V13.265Z" fill="white"/>
<path d="M106.939 8.00352H107.049V16.05H110.531V5.53125H105.1L100.811 13.5777H100.701V5.53125H97.2188V16.05H102.654L106.939 8.00352Z" fill="white"/>
<path d="M122.862 5.53125H117.52L114.139 13.265H112.094V19.0125H115.344V16.0542H124.945V19.0125H128.195V13.265H126.167L122.862 5.53125ZM117.875 13.265L120.09 8.02465H120.182L122.334 13.2861L117.875 13.265Z" fill="white"/>
<path d="M59.7464 27.6051H59.6534L57.2868 21.9844H51.7422V32.5074H55.3048V24.4609H55.3978L57.8912 30.4197H61.3735L63.9894 24.4609H64.0824V32.5074H67.645V21.9844H62.2102L59.7464 27.6051Z" fill="white"/>
<path d="M74.0813 21.9766L69.1875 32.4319V32.508H72.9487L73.8489 30.4837H79.3428L80.2387 32.508H84.0972V32.4319L79.1738 21.9766H74.0813ZM74.9265 28.0748L76.5367 24.4531H76.6297L78.2398 28.0748H74.9265Z" fill="white"/>
<path d="M88.4072 30.1075V24.3812C89.675 24.4277 90.8245 24.4911 91.8304 24.5671C93.749 24.7066 95.4352 24.8925 97.2186 25.1081L97.1088 21.9808C94.9577 21.7948 92.46 21.7188 90.7696 21.7188C86.1632 21.7187 84.5234 23.2655 84.5234 27.2423C84.5234 31.219 86.1801 32.77 90.7907 32.77C92.5403 32.77 95.1267 32.6897 97.2017 32.5037L97.3116 29.3807C95.5789 29.5962 93.8885 29.7652 91.8473 29.9216C90.8837 30.0019 89.7089 30.0611 88.4072 30.1075Z" fill="white"/>
<path d="M97.9922 24.9257H103.025V32.5074H106.584V24.9257H111.617V21.9844H97.9922V24.9257Z" fill="white"/>
<path d="M116.883 28.332H123.091V26.164H116.883V24.7736H125.475V21.9844H113.32V32.5074H125.737V29.7224H116.883V28.332Z" fill="white"/>
<path d="M136.889 21.9766H128.297V32.4995H131.859V29.5835H136.889C140.003 29.5835 141.381 28.265 141.381 25.78C141.381 23.2951 140.003 21.9766 136.889 21.9766ZM137.632 26.8535H131.859V24.6939H137.632V26.8535Z" fill="white"/>
<path d="M5.74219 5.69531V12.2204L14.431 5.69531H5.74219Z" fill="white"/>
<path d="M32.4232 5.69531H23.7344L32.4232 12.2204V5.69531Z" fill="white"/>
<path d="M13.9219 12.3599V15.2674L24.2927 10.7159V7.80836L22.2515 8.70429V5.69531H15.9589V10.7878H17.5014L13.9219 12.3599Z" fill="white"/>
<path d="M24.2927 20.9313L22.2515 21.8231V19.2578L15.9589 22.0175V23.9107H17.4972L13.9219 25.4786V28.3904L24.2927 23.8389V20.9313Z" fill="white"/>
</g>
<defs>
<clipPath id="clip0_5801_48344">
<rect width="142" height="40" fill="white"/>
</clipPath>
</defs>
</svg>
