<svg width="1469" height="279" viewBox="0 0 1469 279" fill="none" xmlns="http://www.w3.org/2000/svg">
<path d="M74.3982 273.863L169.659 165.582H171.234L260.197 273.863H335.382V271.887L218.077 133.572L334.595 7.11331V5.13739H260.197L169.659 106.305H168.085L86.2074 5.13739H11.022V7.11331L121.242 138.314L0 271.887V273.863H74.3982ZM483.813 279C529.869 279 580.255 278.21 644.418 273.863L646.386 219.327C596 224.86 542.071 228.416 483.419 229.997C457.832 230.788 431.458 231.183 404.297 231.183V47.8173C432.639 47.8173 458.62 48.2125 483.419 49.0028C540.497 50.5836 590.883 54.1402 644.418 59.6728L642.45 5.13739C578.286 0.790369 534.199 0 483.813 0C368.869 0 339.346 28.4533 339.346 139.5C339.346 250.547 368.869 279 483.813 279ZM746.734 273.863V41.8895H748.308L843.176 214.585H914.031L1010.87 41.8895H1012.44V273.863H1071.49V5.13739H972.29L880.571 168.348H878.997L789.247 5.13739H687.687V273.863H746.734ZM1265.1 162.816H1407.99V218.932C1374.14 223.279 1337.13 225.65 1298.56 225.65C1259.99 225.65 1222.97 223.279 1189.52 218.932V47.8173C1218.65 47.8173 1248.18 48.2125 1278.08 49.398C1336.35 51.3739 1395.4 54.5354 1456.01 59.6728L1454.05 5.13739C1401.7 1.58074 1341.86 0 1273.37 0C1154.09 0 1124.57 28.0581 1124.57 139.5C1124.57 249.756 1160.39 279 1296.59 279C1431.6 279 1469 252.127 1469 155.307V113.418H1265.1V162.816Z" fill="white"/>
</svg>
