<svg width="32" height="32" viewBox="0 0 32 32" fill="none" xmlns="http://www.w3.org/2000/svg">
<path d="M16.6644 11.2509L16.6648 11.2506C17.3357 10.6137 18.2515 10.25 19.214 10.25C20.1768 10.25 21.0929 10.6135 21.7632 11.2499C22.4729 11.9252 22.7716 12.6425 22.7488 13.4034C22.7156 14.4972 22.0268 15.7059 20.9237 16.9664C19.8379 18.2071 18.4644 19.3735 17.2595 20.3953C16.7913 20.792 16.3599 21.1578 16 21.4849C15.6553 21.1718 15.2446 20.8231 14.801 20.4466L14.7406 20.3953L14.7402 20.395C13.5356 19.3736 12.1622 18.2073 11.0763 16.9666C9.97312 15.706 9.28426 14.4973 9.25126 13.4035L9.25125 13.4033C9.22809 12.6429 9.52693 11.9255 10.2368 11.2503C10.9075 10.6137 11.8238 10.2501 12.7863 10.2501C13.7492 10.2501 14.6655 10.6138 15.3359 11.2505L15.3362 11.2507L15.4842 11.3911L16.0002 11.8806L16.5163 11.3913L16.6644 11.2509Z" stroke="white" stroke-width="1.5"/>
</svg>
