<svg width="108" height="52" viewBox="0 0 108 52" fill="none" xmlns="http://www.w3.org/2000/svg">
<path d="M35.879 29.3058L30.5115 20.6101H29.1476L34.0751 29.3058L24 38.8954H25.8478L35.879 29.3058Z" fill="white"/>
<path d="M36.7149 28.4931L32.0513 20.6101H37.9468L39.7947 23.5358L42.8304 20.6101H44.9422L36.7149 28.4931Z" fill="white"/>
<path d="M27.8277 38.8954L36.407 30.5248L41.5105 38.8954H39.7947L37.6389 35.604L34.3831 38.8954H27.8277Z" fill="white"/>
<path d="M46.3941 20.6101L37.6533 29.3058L42.8304 38.8954H48.066C46.3208 37.4461 42.4865 33.449 43.2704 29.3058C44.0623 25.1199 48.4913 21.7614 50.8817 20.6101H46.3941Z" fill="white"/>
<path d="M62.4088 26.4614L64.6086 20.9352C63.0687 20.4246 61.4394 19.8942 57.0412 20.0182C53.8865 20.1072 49.9228 21.988 47.494 24.8761C45.4855 27.2645 44.4064 29.9847 45.3822 32.5965C47.1069 37.2125 50.3978 38.8954 52.7736 38.8954H57.7452L59.857 33.3285C54.2255 34.5882 51.8057 30.5248 54.3574 27.5585C56.3989 25.1855 60.5756 25.8384 62.4088 26.4614Z" fill="white"/>
<path d="M59.857 38.8954L66.8964 20.6101H73.4078L74.9477 29.834L80.2273 20.6101H86.6067L86.172 27.5585C87.4866 22.864 92.6782 19.7162 98.8817 20.0413C103.844 20.3013 106.434 23.1295 107.109 24.511L101.125 27.1116C100.891 26.5562 99.8232 25.4212 97.4298 25.3237C95.0364 25.2262 93.8808 27.3418 93.6021 28.4119C93.3528 30.0372 93.303 33.078 95.9779 33.7931C98.6529 34.5083 100.04 33.1565 100.334 32.2897H96.7699L97.4298 28.4119H107.945C108.297 31.3917 107.151 38.105 98.9257 38.8954C89.8624 39.7663 86.6067 35.0135 85.9229 31.5407L85.4628 38.8954H79.4793V31.1343L74.9477 38.8954H70.5921L69.5802 31.1343L66.8964 38.8954H59.857Z" fill="white"/>
<path fill-rule="evenodd" clip-rule="evenodd" d="M22.458 22.1953C22.458 21.0907 21.5626 20.1953 20.458 20.1953H5.00146C3.89689 20.1953 3.00146 21.0907 3.00146 22.1953V37.2325C3.00146 38.3371 3.89689 39.2325 5.00146 39.2325H20.458C21.5626 39.2325 22.458 38.3371 22.458 37.2325V22.1953ZM8.58222 22.5781H16.9178L20.7547 29.2167C20.9337 29.5263 20.9337 29.9079 20.7547 30.2175L16.9178 36.856H12.6978L18.9099 26.2188H6.58922L12.6779 36.856H8.58222L4.70877 30.2213C4.5269 29.9097 4.5269 29.5244 4.70877 29.2129L8.58222 22.5781Z" fill="white"/>
<path d="M6.443 15.11C8.214 15.11 9.501 13.856 9.501 12.14C9.501 10.435 8.214 9.17 6.443 9.17C4.683 9.17 3.385 10.435 3.385 12.14C3.385 13.856 4.683 15.11 6.443 15.11ZM6.443 13.977C5.398 13.977 4.606 13.185 4.606 12.14C4.606 11.084 5.398 10.303 6.443 10.303C7.499 10.303 8.28 11.084 8.28 12.14C8.28 13.185 7.499 13.977 6.443 13.977ZM16.6617 12.129C16.6617 10.479 15.4847 9.269 13.7577 9.203V6.75H12.5807V9.203C10.8757 9.269 9.69874 10.512 9.69874 12.129C9.69874 13.757 10.8757 15.022 12.5807 15.088V17.53H13.7577V15.088C15.4847 15.022 16.6617 13.801 16.6617 12.129ZM10.8537 12.129C10.8537 11.084 11.5467 10.303 12.5807 10.237V14.032C11.5467 13.955 10.8537 13.163 10.8537 12.129ZM13.7577 10.237C14.8137 10.303 15.5067 11.106 15.5067 12.129C15.5067 13.185 14.8137 13.966 13.7577 14.032V10.237ZM18.3743 13.251V9.291H17.1313V15H18.2863L21.3883 11.106V15H22.6313V9.291H21.4873L18.3743 13.251ZM28.7819 9.291H27.5389V13.878H24.7449V9.291H23.5019V15H28.3749V16.232H29.5189V13.834H28.7819V9.291ZM31.1047 13.251V9.291H29.8617V15H31.0167L34.1187 11.106V15H35.3617V9.291H34.2177L31.1047 13.251ZM40.9292 10.38V10.336C40.4892 9.588 39.6972 9.17 38.8392 9.17C37.0792 9.17 35.9682 10.435 35.9682 12.129C35.9682 13.779 37.0352 15.11 38.7732 15.11C39.8182 15.11 40.6102 14.615 40.9292 13.834V15H42.1942V9.291H41.1272L40.9292 10.38ZM39.0922 13.977C38.0142 13.977 37.2442 13.218 37.2442 12.14C37.2442 11.073 38.0142 10.314 39.0922 10.314C40.1592 10.314 40.9182 11.106 40.9182 12.14C40.9182 13.185 40.1592 13.977 39.0922 13.977ZM42.6357 15.033C43.8347 15.055 44.7697 14.34 44.7697 12.756V10.413H46.9367V15H48.1797V9.291H43.5487V12.734C43.5487 13.647 43.0867 13.889 42.6467 13.911L42.6357 15.033ZM50.2807 11.062V9.291H49.0377V15H51.7217C53.0637 15 53.9767 14.263 53.9767 13.031C53.9767 11.81 53.0637 11.062 51.7217 11.062H50.2807ZM50.2807 13.933V12.118H51.5787C52.2717 12.118 52.7337 12.437 52.7337 13.031C52.7337 13.625 52.2717 13.933 51.5787 13.933H50.2807ZM58.4803 11.634H55.6093V9.291H54.3663V15H55.6093V12.723H58.4803V15H59.7233V9.291H58.4803V11.634ZM61.8402 11.062V9.291H60.5972V15H63.2812C64.6232 15 65.5362 14.263 65.5362 13.031C65.5362 11.81 64.6232 11.062 63.2812 11.062H61.8402ZM66.3612 15H67.6262V9.291H66.3612V15ZM61.8402 13.933V12.118H63.1382C63.8312 12.118 64.2932 12.437 64.2932 13.031C64.2932 13.625 63.8312 13.933 63.1382 13.933H61.8402ZM71.2544 8.73C72.1344 8.73 73.0804 8.268 73.0804 7.08H72.1014C72.1014 7.498 71.8484 7.905 71.2544 7.905C70.6604 7.905 70.4074 7.498 70.4074 7.08H69.4174C69.4174 8.268 70.3634 8.73 71.2544 8.73ZM69.7254 13.251V9.291H68.4824V15H69.6374L72.7394 11.106V15H73.9824V9.291H72.8384L69.7254 13.251ZM82.0995 9.291H77.4465L77.3585 12.844C77.3475 13.57 77.1605 13.834 76.9625 13.834H76.2255V16.232H77.3695V15H81.7035V16.232H82.8475V13.834H82.0995V9.291ZM78.2935 13.834C78.4035 13.746 78.5355 13.438 78.5575 12.767L78.6235 10.413H80.8565V13.834H78.2935ZM84.422 13.251V9.291H83.179V15H84.334L87.436 11.106V15H88.679V9.291H87.535L84.422 13.251ZM89.1205 15.033C90.3195 15.055 91.2545 14.34 91.2545 12.756V10.413H93.4215V15H94.6645V9.291H90.0335V12.734C90.0335 13.647 89.5715 13.889 89.1315 13.911L89.1205 15.033ZM98.1846 9.17C96.4796 9.17 95.2586 10.457 95.2586 12.151C95.2586 13.933 96.5346 15.11 98.2726 15.11C99.6146 15.11 100.671 14.296 100.979 13.273L99.8676 13.152C99.6256 13.647 99.0976 14.065 98.2836 14.065C97.3376 14.065 96.6006 13.449 96.5236 12.558H101.111C101.166 10.38 99.9226 9.17 98.1846 9.17ZM98.1846 10.193C99.1196 10.193 99.7796 10.798 99.8126 11.601H96.5236C96.5896 10.787 97.2826 10.193 98.1846 10.193ZM105.11 9.181C104.076 9.181 103.273 9.687 102.965 10.457V10.424L102.745 9.291H101.7V17.53H102.965V13.955C103.394 14.703 104.186 15.121 105.044 15.121C106.804 15.121 107.915 13.856 107.915 12.162C107.915 10.512 106.848 9.181 105.11 9.181ZM104.802 13.977C103.735 13.977 102.965 13.185 102.965 12.151C102.965 11.106 103.735 10.314 104.802 10.314C105.88 10.314 106.65 11.073 106.65 12.151C106.65 13.218 105.88 13.977 104.802 13.977Z" fill="white"/>
</svg>
