<svg width="38" height="40" viewBox="0 0 38 40" fill="none" xmlns="http://www.w3.org/2000/svg">
<path d="M0.421875 0.421875L0.841831 23.5555L18.9755 39.154L37.063 23.5936L37.483 0.421875H0.421875Z" fill="#222222"/>
<path d="M0 0V23.9789L18.9736 40L37.901 24.0169V0H0ZM36.0112 23.1252L21.9133 35.0301L18.9736 37.5108L16.0339 35.0301L1.936 23.1252V1.88484H36.0112V23.1252Z" fill="white"/>
<path d="M22.1125 5.69531V29.3615L18.9964 32.5817L15.8762 29.3615V26.8258C17.0311 26.4032 18.3455 25.9299 18.3455 25.8284V23.9098H15.8594V20.2838C17.0143 19.8612 18.3287 19.3879 18.3287 19.2907V17.3467H15.8594V13.7122C17.0143 13.2896 18.3287 12.8163 18.3287 12.7149V10.7878H15.8594V5.71644L22.1125 5.69531Z" fill="white"/>
<path d="M14.3413 5.69531H5.70703V12.2204L14.3413 5.69531Z" fill="white"/>
<path d="M23.5859 5.69531H32.2202V12.2204L23.5859 5.69531Z" fill="white"/>
<path opacity="0.3" d="M22.1125 9.78906V12.7008L15.8594 15.4605V13.7151C17.0143 13.2925 18.3287 12.8192 18.3287 12.7177V11.4499L22.1125 9.78906Z" fill="#222222"/>
<path d="M24.1377 10.7201L13.832 15.2716V12.364L24.1377 7.8125V10.7201Z" fill="white"/>
<path opacity="0.3" d="M22.1125 16.3438V19.2555L15.8594 22.0152V20.2825C17.0143 19.8599 18.3287 19.3865 18.3287 19.2893V18.0215L22.1125 16.3438Z" fill="#222222"/>
<path d="M24.1377 17.279L13.832 21.8305V18.9187L24.1377 14.3672V17.279Z" fill="white"/>
<path opacity="0.3" d="M22.1125 22.9062V25.8138L15.8594 28.5734V26.8323C17.0143 26.4097 18.3287 25.9364 18.3287 25.8349V24.5671L22.1125 22.9062Z" fill="#222222"/>
<path d="M24.1377 23.8372L13.832 28.3887V25.477L24.1377 20.9297V23.8372Z" fill="white"/>
</svg>
