<svg width="1478" height="205" viewBox="0 0 1478 205" fill="none" xmlns="http://www.w3.org/2000/svg">
<g clip-path="url(#clip0_5801_44921)">
<path d="M128.85 103.621H127.406L59.8024 -4.0625H0V-2.61901L86.959 130.47H114.982L102.271 155.009C83.4921 154.721 58.9356 153.278 34.668 150.39L36.1125 193.695C51.1353 195.715 66.7359 196.582 77.7141 196.582C119.316 196.582 138.095 182.147 157.162 147.503L239.788 -2.61901V-4.0625H184.896L128.85 103.621Z" fill="#222222"/>
<path d="M352.657 196.584C385.88 196.584 427.194 195.43 471.107 192.254L472.839 145.485C436.149 149.815 398.303 152.702 354.101 154.435C338.211 155.011 319.433 155.589 299.499 155.878V32.3157C320.3 32.6043 339.079 33.1817 354.101 33.7591C397.437 35.4912 433.55 38.6669 471.394 42.7087L469.661 -4.06016C425.171 -7.23584 387.325 -8.39062 352.657 -8.39062C267.721 -8.39062 242.586 15.5712 242.586 94.0967C242.586 172.622 267.721 196.584 352.657 196.584Z" fill="#222222"/>
<path d="M531.84 148.081C513.64 147.792 495.728 146.06 475.794 143.751L477.527 194.272C488.505 195.715 501.506 196.582 509.307 196.582C556.397 196.582 580.665 175.506 585.287 124.696L592.798 41.2628H684.669V192.252H736.67V-4.0625H545.707L531.84 148.081Z" fill="#222222"/>
<path d="M888.657 103.621H887.213L819.61 -4.0625H759.807V-2.61901L846.767 130.47H874.79L862.078 155.009C843.3 154.721 818.744 153.278 794.475 150.39L795.92 193.695C810.943 195.715 826.544 196.582 837.522 196.582C879.123 196.582 897.902 182.147 916.969 147.503L999.595 -2.61901V-4.0625H944.704L888.657 103.621Z" fill="#222222"/>
<path d="M1073.25 192.252V41.2628H1213.95V-4.0625H1021.25V192.252H1073.25Z" fill="#222222"/>
<path d="M1322.86 192.252L1424.55 30.0037H1425.99V192.252H1478V-4.0625H1393.64L1291.94 158.185H1290.5V-4.0625H1238.5V192.252H1322.86Z" fill="#222222"/>
<path d="M888.656 103.621H887.211L819.61 -4.0625H759.807V-2.61902L846.766 130.47H874.789L862.077 155.01C843.299 154.721 818.742 153.278 794.475 150.391L795.92 193.695C810.942 195.716 826.543 196.582 837.521 196.582C879.122 196.582 897.901 182.147 916.968 147.503L999.593 -2.61902V-4.0625H944.704L888.656 103.621Z" fill="#222222"/>
<path d="M1073.25 192.252V41.2629H1213.95V-4.0625H1021.25V192.252H1073.25Z" fill="#222222"/>
<path d="M1322.86 192.252L1424.55 30.0037H1425.99V192.252H1478V-4.0625H1393.64L1291.94 158.186H1290.5V-4.0625H1238.5V192.252H1322.86Z" fill="#222222"/>
</g>
<defs>
<clipPath id="clip0_5801_44921">
<rect width="1478" height="205" fill="white"/>
</clipPath>
</defs>
</svg>
